<svg xmlns="http://www.w3.org/2000/svg" xmlns:xlink="http://www.w3.org/1999/xlink" version="1.1" width="16.950000762939453" height="16.950000762939453" viewBox="15.5 34.54999923706055 16.950000762939453 16.950000762939453">
  <!-- Exported by Scratch - http://scratch.mit.edu/ -->
  <path id="ID0.5806888942606747" fill="#FFFFFF" stroke="none" d="M 23.975 35.05 C 26.175 35.05 28.169 35.944 29.613 37.387 C 31.056 38.831 31.95 40.825 31.95 43.025 C 31.95 45.225 31.056 47.219 29.613 48.663 C 28.169 50.106 26.175 51 23.975 51 C 21.775 51 19.781 50.106 18.337 48.663 C 16.894 47.219 16 45.225 16 43.025 C 16 40.825 16.894 38.831 18.337 37.387 C 19.781 35.944 21.775 35.05 23.975 35.05 Z " stroke-width="1"/>
  <path id="ID0.9392175651155412" fill="#FF0000" stroke="none" d="M 20.55 42.1 L 27.7 42.1 L 27.7 44.2 L 20.55 44.2 L 20.55 42.1 Z " stroke-width="1"/>
  <path id="ID0.7942408206872642" fill="#FF0000" stroke="none" d="M 22.95 39.9 L 25.05 39.9 L 25.05 46.75 L 22.95 46.75 L 22.95 39.9 Z " stroke-width="1"/>
</svg>